<svg width="7" height="16" viewBox="0 0 7 16" fill="none" xmlns="http://www.w3.org/2000/svg">
<path d="M1.5137 3.10181C1.5137 3.50349 1.5137 5.30358 1.5137 5.30358H0V7.99628H1.5137V16H4.62133V7.99628H6.70703C6.70703 7.99628 6.90234 6.70572 6.99651 5.29242C6.72446 5.29242 4.63179 5.29242 4.63179 5.29242C4.63179 5.29242 4.63179 3.72664 4.63179 3.45142C4.63179 3.1762 4.9701 2.80428 5.30493 2.80428C5.63976 2.80428 6.34429 2.80428 7 2.80428C7 2.43608 7 1.17155 7 0C6.12805 0 5.13403 0 4.69806 0C1.43697 0.0037192 1.5137 2.70014 1.5137 3.10181Z" fill="#ff6635"/>
</svg>
