<svg id="Layer_1" data-name="Layer 1" xmlns="http://www.w3.org/2000/svg" viewBox="0 0 424.81 79.09"><defs><style>.cls-1{fill:#fff;}.cls-2{fill:#f27755;}</style></defs><path class="cls-1" d="M148.54,74.7l-1.22,7h16.33l-1.05,5.67H146.37l-2.32,13.29h-6.71c1.86-10.52,3.72-21.18,5.58-31.7h24.85l-1,5.76Z" transform="translate(-39.23 -44.46)"/><path class="cls-1" d="M177.29,68.94l-5.62,31.7h-6.49l5.58-31.7Z" transform="translate(-39.23 -44.46)"/><path class="cls-1" d="M205.63,74.7H195.52l-4.58,25.94h-6.49L189,74.7H178.6l1.09-5.76h27Z" transform="translate(-39.23 -44.46)"/><path class="cls-1" d="M268.39,68.94l-16.1,31.7h-7.17l-2.44-19.73h-.19l-9.84,19.73h-7.07L221,68.94h7.25l2.14,25.39h.18l11.11-25.39h6l2.18,25.44h.18c3.53-8.16,7.48-17.23,11.06-25.44Z" transform="translate(-39.23 -44.46)"/><path class="cls-1" d="M277.86,68.94l-5.62,31.7h-6.49l5.58-31.7Z" transform="translate(-39.23 -44.46)"/><path class="cls-1" d="M306.2,74.7H296.09l-4.58,25.94H285L289.6,74.7H279.17l1.09-5.76h27Z" transform="translate(-39.23 -44.46)"/><path class="cls-1" d="M339.67,68.94l-5.58,31.7H327.6l2.27-12.93H313.64l-2.32,12.93h-6.48l5.58-31.7H317L314.63,82h16.24l2.31-13.06Z" transform="translate(-39.23 -44.46)"/><path class="cls-2" d="M390.45,68.94l-5.58,31.7h-6.48l2.26-12.93H364.42l-2.31,12.93h-6.49l5.58-31.7h6.53L365.42,82h16.23L384,68.94Z" transform="translate(-39.23 -44.46)"/><path class="cls-2" d="M400.47,74.7l-1.23,7h16.33l-1,5.67H398.29L397,94.79h18.23l-1,5.85H389.27c1.86-10.52,3.72-21.18,5.57-31.7H419.7l-1.05,5.76Z" transform="translate(-39.23 -44.46)"/><path class="cls-2" d="M442.55,88.94l3.44,11.7h-7l-3-10.89H426c-.64,3.68-1.28,7.26-1.91,10.89h-6.53c1.81-10.39,3.81-21.36,5.62-31.7h17.19c5.08,0,9.25,1.4,10.2,6.8A12.29,12.29,0,0,1,442.55,88.94ZM444,77.51c-.22-2-2-2.77-4.26-2.77h-11L427,84h10.66c2.13,0,4.22-.36,5.53-2.45A6.12,6.12,0,0,0,444,77.51Z" transform="translate(-39.23 -44.46)"/><path class="cls-2" d="M464,72.72a4,4,0,1,1-4-3.93A4,4,0,0,1,464,72.72Zm-7.08,0A3,3,0,0,0,460,75.87a3,3,0,0,0,3-3.12,3,3,0,1,0-6.07,0Zm2.42,2.07h-.91V70.85a8.1,8.1,0,0,1,1.51-.12,2.43,2.43,0,0,1,1.37.29,1.08,1.08,0,0,1,.38.86,1,1,0,0,1-.81.92v0a1.19,1.19,0,0,1,.72,1,3,3,0,0,0,.29,1h-1a3.53,3.53,0,0,1-.31-1c-.07-.43-.31-.63-.82-.63h-.43Zm0-2.23h.43c.5,0,.91-.17.91-.58s-.26-.6-.84-.6a1.8,1.8,0,0,0-.5.05Z" transform="translate(-39.23 -44.46)"/><path class="cls-2" d="M110.55,60.54l-2.13,12.13L92.49,72.6c.1-1,.19-1.92.27-2.89l.1-1.39a120.87,120.87,0,0,0,.46-14,5.18,5.18,0,0,0-.53-2.75,1.94,1.94,0,0,0-.3-.38h8.38a39.54,39.54,0,0,0-44.19,0H90.07a1.17,1.17,0,0,0-.23.62l0,.54a16.86,16.86,0,0,1,.1,1.87c-.07,1.47-.15,3-.26,4.45a115.94,115.94,0,0,1-1.91,13.89h0l-.15.88c-.34,1.64-.72,3.26-1.14,4.89a64.45,64.45,0,0,1-4,11.64,1.32,1.32,0,0,1-.81-1.26,50.4,50.4,0,0,1-.86-7.1,98.33,98.33,0,0,1,.15-12,59,59,0,0,1,1.38-9.94,7.38,7.38,0,0,0,.16-1,2.58,2.58,0,0,0-1.91-3A2.47,2.47,0,0,0,80,55.6a3.84,3.84,0,0,0-3.25,1.5c-.63.72-2.36,3.85-2.84,4.67C70.26,68,66.8,74.88,63.54,80.72a5.58,5.58,0,0,1-1.91,2.19,1.75,1.75,0,0,1-.28-1.11l.09-.66A106.8,106.8,0,0,1,63.55,69.9c.91-3.19,2.93-9.56,4-12.69a5.81,5.81,0,0,0,.3-1.3,2.61,2.61,0,0,0-1.53-2.64,5,5,0,0,0-2-.66,3.86,3.86,0,0,0-3.47,1.55,13.41,13.41,0,0,0-1.44,2.73,64.31,64.31,0,0,0-5.15,21.76c-.09,1.12-.18,2.24-.22,3.36a16.19,16.19,0,0,0,.35,4.49,6.21,6.21,0,0,0,5.56,5,6.81,6.81,0,0,0,4.88-1.64A16.44,16.44,0,0,0,68.78,85c1.43-2.41,2.65-4.92,3.84-7.46A3.65,3.65,0,0,1,74,75.4c.09,1.49.19,2.81.21,4.09A72.23,72.23,0,0,0,75.5,91,14.11,14.11,0,0,0,77.22,96a5.87,5.87,0,0,0,1.68,1.75H68.05L64,120.65a39.49,39.49,0,0,0,46.58-60.11ZM99.72,97.74H84.47a6.07,6.07,0,0,0,1.2-1,10.37,10.37,0,0,0,1.55-2.4A32.49,32.49,0,0,0,89.28,89a80.89,80.89,0,0,0,2.52-11.1h11.38Z" transform="translate(-39.23 -44.46)"/><path class="cls-2" d="M39.23,84a39.31,39.31,0,0,0,4.27,17.8l8.19-46.57A39.44,39.44,0,0,0,39.23,84Z" transform="translate(-39.23 -44.46)"/></svg>