<svg width="15" height="15" viewBox="0 0 15 15" fill="none" xmlns="http://www.w3.org/2000/svg">
<path d="M7.49939 0C3.36388 0 0 3.36455 0 7.50009C0 11.6356 3.36388 15 7.49939 15C11.6351 15 14.9995 11.6355 14.9995 7.50009C14.9995 3.36455 11.635 0 7.49939 0ZM7.49939 13.4122C4.23962 13.4122 1.5879 10.7599 1.5879 7.50009C1.5879 4.24032 4.23965 1.58787 7.49939 1.58787C10.7593 1.58787 13.4116 4.24032 13.4116 7.50009C13.4116 10.7599 10.7593 13.4122 7.49939 13.4122Z" fill="#FF8159"/>
<path d="M8.2609 6.77197H6.73828C6.48281 6.77197 6.27539 6.97939 6.27539 7.23447V11.7489C6.27539 12.0044 6.48281 12.2114 6.73828 12.2114H8.2609C8.51638 12.2114 8.72379 12.0043 8.72379 11.7489V7.2345C8.72379 6.97942 8.51638 6.77197 8.2609 6.77197Z" fill="#FF8159"/>
<path d="M7.50088 2.78955C6.75197 2.78955 6.14453 3.39696 6.14453 4.14589C6.14453 4.89492 6.75194 5.50236 7.50088 5.50236C8.24993 5.50236 8.8574 4.89495 8.8574 4.14589C8.85737 3.39696 8.24996 2.78955 7.50088 2.78955Z" fill="#FF8159"/>
</svg>
