<svg width="15" height="15" viewBox="0 0 15 15" fill="none" xmlns="http://www.w3.org/2000/svg">
<path d="M7.49939 0C3.36388 0 0 3.36455 0 7.50009C0 11.6356 3.36388 15 7.49939 15C11.6351 15 14.9995 11.6355 14.9995 7.50009C14.9995 3.36455 11.635 0 7.49939 0ZM7.49939 13.4122C4.23962 13.4122 1.5879 10.7599 1.5879 7.50009C1.5879 4.24032 4.23965 1.58787 7.49939 1.58787C10.7593 1.58787 13.4116 4.24032 13.4116 7.50009C13.4116 10.7599 10.7593 13.4122 7.49939 13.4122Z" fill="#ff8159"/>
<path d="M8.26139 6.77173H6.73877C6.4833 6.77173 6.27588 6.97914 6.27588 7.23422V11.7486C6.27588 12.0041 6.4833 12.2111 6.73877 12.2111H8.26139C8.51686 12.2111 8.72428 12.004 8.72428 11.7486V7.23425C8.72428 6.97918 8.51686 6.77173 8.26139 6.77173Z" fill="#ff8159"/>
<path d="M7.50039 2.78943C6.75149 2.78943 6.14404 3.39684 6.14404 4.14577C6.14404 4.8948 6.75145 5.50224 7.50039 5.50224C8.24944 5.50224 8.85691 4.89483 8.85691 4.14577C8.85688 3.39684 8.24947 2.78943 7.50039 2.78943Z" fill="#ff8159"/>
</svg>
