<svg width="19" height="19" viewBox="0 0 19 19" fill="none" xmlns="http://www.w3.org/2000/svg">
<path d="M9.45505 0C6.88743 0 6.5652 0.0112275 5.55674 0.0571214C4.55026 0.103212 3.86325 0.262561 3.26211 0.496364C2.6403 0.737848 2.11283 1.06088 1.58733 1.58659C1.06144 2.11211 0.738417 2.63959 0.496151 3.26123C0.261765 3.86258 0.102224 4.5498 0.0569224 5.55592C0.0118177 6.56441 0 6.88685 0 9.45454C0 12.0222 0.0114241 12.3435 0.0571197 13.352C0.103406 14.3585 0.26275 15.0455 0.496349 15.6467C0.738023 16.2685 1.06104 16.796 1.58674 17.3215C2.11204 17.8474 2.63951 18.1712 3.26093 18.4127C3.86246 18.6465 4.54967 18.8059 5.55595 18.852C6.56441 18.8979 6.88644 18.9091 9.45387 18.9091C12.0217 18.9091 12.3429 18.8979 13.3514 18.852C14.3579 18.8059 15.0457 18.6465 15.6472 18.4127C16.2688 18.1712 16.7955 17.8474 17.3208 17.3215C17.8467 16.796 18.1697 16.2685 18.412 15.6469C18.6444 15.0455 18.8039 14.3583 18.8512 13.3522C18.8965 12.3437 18.9083 12.0222 18.9083 9.45454C18.9083 6.88685 18.8965 6.56461 18.8512 5.55612C18.8039 4.54961 18.6444 3.86258 18.412 3.26142C18.1697 2.63959 17.8467 2.11211 17.3208 1.58659C16.7949 1.06068 16.269 0.737652 15.6466 0.496364C15.0439 0.262561 14.3565 0.103212 13.35 0.0571214C12.3416 0.0112275 12.0205 0 9.45209 0H9.45505ZM8.60692 1.70379C8.85864 1.70339 9.13951 1.70379 9.45505 1.70379C11.9793 1.70379 12.2785 1.71285 13.2754 1.75815C14.1971 1.8003 14.6974 1.95433 15.0307 2.08374C15.4719 2.25511 15.7864 2.45995 16.1171 2.79086C16.448 3.12177 16.6529 3.43692 16.8246 3.87814C16.954 4.21101 17.1083 4.71132 17.1502 5.63314C17.1955 6.6298 17.2054 6.9292 17.2054 9.45238C17.2054 11.9756 17.1955 12.275 17.1502 13.2716C17.1081 14.1934 16.954 14.6937 16.8246 15.0266C16.6533 15.4678 16.448 15.782 16.1171 16.1127C15.7862 16.4436 15.4721 16.6485 15.0307 16.8198C14.6978 16.9498 14.1971 17.1035 13.2754 17.1456C12.2787 17.1909 11.9793 17.2008 9.45505 17.2008C6.93056 17.2008 6.63138 17.1909 5.63474 17.1456C4.71295 17.1031 4.21266 16.949 3.8792 16.8196C3.438 16.6483 3.12286 16.4434 2.79196 16.1125C2.46106 15.7816 2.25622 15.4672 2.08447 15.0258C1.95506 14.693 1.80084 14.1926 1.75889 13.2708C1.71358 12.2742 1.70452 11.9748 1.70452 9.45001C1.70452 6.92526 1.71358 6.62744 1.75889 5.63077C1.80104 4.70895 1.95506 4.20865 2.08447 3.87538C2.25583 3.43417 2.46106 3.11901 2.79196 2.78811C3.12286 2.4572 3.438 2.25235 3.8792 2.08059C4.21246 1.95059 4.71295 1.79695 5.63474 1.75461C6.50689 1.71521 6.84488 1.70339 8.60692 1.70142V1.70379ZM14.5017 3.27364C13.8753 3.27364 13.3671 3.78123 13.3671 4.40779C13.3671 5.03415 13.8753 5.54233 14.5017 5.54233C15.128 5.54233 15.6362 5.03415 15.6362 4.40779C15.6362 3.78142 15.128 3.27324 14.5017 3.27324V3.27364ZM9.45505 4.59924C6.77378 4.59924 4.59989 6.7732 4.59989 9.45454C4.59989 12.1359 6.77378 14.3089 9.45505 14.3089C12.1363 14.3089 14.3094 12.1359 14.3094 9.45454C14.3094 6.7732 12.1361 4.59924 9.45485 4.59924H9.45505ZM9.45505 6.30303C11.1954 6.30303 12.6065 7.71392 12.6065 9.45454C12.6065 11.195 11.1954 12.6061 9.45505 12.6061C7.71448 12.6061 6.30363 11.195 6.30363 9.45454C6.30363 7.71392 7.71448 6.30303 9.45505 6.30303V6.30303Z" fill="#ff6635"/>
</svg>
