<svg width="30" height="10" viewBox="0 0 30 19" fill="none" xmlns="http://www.w3.org/2000/svg">
<path d="M19.056 9.78021C19.056 14.8147 14.9777 18.8939 9.945 18.8939C4.91235 18.8939 0.833984 14.8138 0.833984 9.78021C0.833984 4.74666 4.91335 0.666504 9.945 0.666504C14.9767 0.666504 19.056 4.74666 19.056 9.78021Z" fill="#E2574C"/>
<path d="M20.8862 0.666504C18.8429 0.666504 16.9618 1.34731 15.4416 2.48383L15.4489 2.48473C15.7479 2.77361 16.0777 2.97692 16.332 3.30948L14.4363 3.33957C14.1393 3.63944 13.8686 3.9657 13.6134 4.30476H16.9563C17.2106 4.61003 17.4457 4.87531 17.659 5.21247H13.0074C12.8369 5.50594 12.6793 5.80762 12.5417 6.12108H18.1886C18.3362 6.43365 18.4683 6.66975 18.5805 7.00061H12.2072C12.106 7.31507 12.0195 7.63674 11.9538 7.9648H18.8475C18.9149 8.28016 18.9668 8.57174 19.0024 8.86891H11.8171C11.787 9.16879 11.7715 9.47316 11.7715 9.78033H19.0543C19.0543 10.103 19.0315 10.4019 18.9987 10.6917H11.8171C11.8481 11.0007 11.8936 11.3042 11.9538 11.6032H18.8365C18.7654 11.8984 18.6833 12.1955 18.5804 12.5036H12.1862C12.2828 12.8152 12.4004 13.1178 12.5289 13.4131H18.1886C18.0318 13.7448 17.8541 14.01 17.6582 14.3208H12.9911C13.1752 14.6398 13.3784 14.9441 13.5989 15.2358L16.9564 15.2859C16.6702 15.6294 16.303 15.8363 15.9684 16.1371C15.9866 16.1517 15.4334 16.1353 14.3443 16.118C16.0012 17.8278 18.317 18.894 20.8861 18.894C25.9197 18.894 29.9998 14.8138 29.9998 9.78033C29.9998 4.74687 25.9206 0.666504 20.8862 0.666504Z" fill="#F4B459"/>
</svg>
