<svg width="26" height="26" viewBox="0 0 26 26" fill="none" xmlns="http://www.w3.org/2000/svg">
<path d="M11.1048 10.6302C9.7276 10.6302 8.73504 11.7827 8.73504 13.182C8.73504 14.72 9.91875 15.7286 11.7105 17.2552C12.0228 17.5212 12.3457 17.7963 12.6886 18.0963C12.778 18.1745 12.8893 18.2136 13.0007 18.2136C13.112 18.2136 13.2234 18.1745 13.3127 18.0963C13.6556 17.7963 13.9785 17.5212 14.2908 17.2552C16.0826 15.7286 17.2663 14.72 17.2663 13.182C17.2663 11.7826 16.2735 10.6302 14.8965 10.6302C13.955 10.6302 13.3579 11.1678 13.0007 11.6869C12.6435 11.1678 12.0463 10.6302 11.1048 10.6302ZM13.4578 12.8885C13.4614 12.8754 13.8295 11.5782 14.8965 11.5782C15.7071 11.5782 16.3184 12.2677 16.3184 13.182C16.3184 14.2823 15.3238 15.1298 13.676 16.5337C13.4574 16.72 13.2336 16.9107 13.0007 17.1118C12.7678 16.9107 12.544 16.7199 12.3253 16.5337C10.6776 15.1298 9.68295 14.2823 9.68295 13.182C9.68295 12.2677 10.2942 11.5782 11.1048 11.5782C12.1583 11.5782 12.5272 12.8308 12.544 12.8898C12.6009 13.095 12.7877 13.237 13.0007 13.237C13.2141 13.237 13.4013 13.0943 13.4578 12.8885Z" fill="black"/>
<path d="M6.83921 6.17507C7.10097 6.17507 7.31318 5.96287 7.31318 5.70111C7.31318 5.43935 7.10097 5.22715 6.83921 5.22715C6.57745 5.22715 6.36525 5.43935 6.36525 5.70111C6.36525 5.96287 6.57745 6.17507 6.83921 6.17507Z" fill="black"/>
<path d="M22.0904 12.139C22.4227 12.3923 22.8196 12.5261 23.2383 12.5261C24.2837 12.5261 25.1341 11.6756 25.1341 10.6302C25.1341 10.0331 24.8615 9.48312 24.3878 9.12263L22.006 7.29215V1.34066C22.006 1.07894 21.7938 0.866699 21.532 0.866699H18.6883C18.4265 0.866699 18.2143 1.07894 18.2143 1.34066V4.37821L14.1487 1.25373C13.8164 1.0005 13.4194 0.866699 13.0008 0.866699C12.5821 0.866699 12.1852 1.0005 11.8512 1.25492L8.24258 4.02829C8.03503 4.18777 7.99607 4.48537 8.15561 4.69287C8.31509 4.90037 8.61269 4.93938 8.82024 4.77984L12.4273 2.00771C12.5931 1.8814 12.7914 1.81462 13.0008 1.81462C13.2101 1.81462 13.4084 1.8814 13.5727 2.00652L23.812 9.87556C24.0498 10.0566 24.1862 10.3316 24.1862 10.6302C24.1862 11.1529 23.761 11.5782 23.2383 11.5782C23.0289 11.5782 22.8306 11.5114 22.6665 11.3863C22.1356 10.978 13.718 4.504 13.2898 4.1746C13.1254 4.04819 12.898 4.04326 12.7284 4.16246C12.7069 4.17749 3.33758 11.3844 3.33659 11.3852C3.14658 11.5301 2.90903 11.5968 2.66674 11.5733C2.19743 11.5278 1.94282 11.3071 1.8411 10.8574C1.75589 10.4807 1.8895 10.1043 2.19136 9.87423L5.43935 7.37813C5.6469 7.21864 5.68586 6.92104 5.52632 6.71354C5.36679 6.50605 5.06919 6.46704 4.86169 6.62657L1.61526 9.12149C1.01618 9.5782 0.748488 10.3235 0.916602 11.0666C1.10889 11.9168 1.69802 12.4318 2.57503 12.5167C3.05586 12.5638 3.53039 12.4295 3.91145 12.1389L3.91074 12.138C3.93088 12.1232 3.95837 12.1025 3.99563 12.074V18.5767C2.91116 18.8368 2.07254 19.7192 1.87229 20.8364C1.24705 21.2785 0.867499 21.9968 0.867499 22.7635C0.867499 24.0702 1.93059 25.1333 3.23729 25.1333H22.7644C24.0711 25.1333 25.1342 24.0702 25.1342 22.7635C25.1342 21.9968 24.7546 21.2785 24.1294 20.8364C23.9291 19.7187 23.0899 18.836 22.006 18.5765V12.0742L22.0904 12.139ZM19.1622 1.81462H21.0581V6.56368L19.1622 5.10668V1.81462ZM8.45079 24.1855H3.23724C2.45322 24.1855 1.81537 23.5476 1.81537 22.7636C1.81537 22.2572 2.09477 21.785 2.54451 21.5313C2.67954 21.4551 2.76874 21.3177 2.78348 21.1633C2.87614 20.1902 3.68182 19.4459 4.65917 19.4459C5.26948 19.4459 5.847 19.7465 6.20389 20.2498C6.31575 20.4076 6.5122 20.4816 6.70036 20.4368C6.82184 20.4079 6.92933 20.3938 7.02896 20.3938C7.79435 20.3938 8.44145 21.0085 8.45074 21.7989C8.41036 22.0839 8.56269 22.2787 8.76033 22.3476C9.12717 22.4754 9.39875 22.8222 9.39875 23.2375C9.3987 23.7602 8.97347 24.1855 8.45079 24.1855ZM16.6131 21.5956C16.3202 21.7613 16.0783 22.0003 15.9104 22.2897H10.091C9.923 22.0002 9.68128 21.7613 9.38847 21.5956C9.3805 21.5102 9.3679 21.4255 9.35083 21.3413H16.6508C16.6337 21.4254 16.6211 21.5102 16.6131 21.5956ZM10.0922 24.1855C10.254 23.9064 10.3466 23.5826 10.3466 23.2375H15.655C15.655 23.5826 15.7477 23.9064 15.9094 24.1855H10.0922ZM23.2181 21.1633C23.2328 21.3177 23.3221 21.4551 23.4571 21.5313C23.9069 21.785 24.1863 22.2572 24.1863 22.7636C24.1863 23.5476 23.5484 24.1855 22.7644 24.1855H17.5508C17.0282 24.1855 16.6029 23.7602 16.6029 23.2375C16.6029 22.8218 16.875 22.4752 17.2413 22.3476C17.4407 22.2782 17.5911 22.0823 17.5509 21.799C17.5602 21.0105 18.2055 20.3938 18.9727 20.3938C19.0723 20.3938 19.1798 20.4079 19.3013 20.4368C19.4893 20.4816 19.6859 20.4077 19.7978 20.2499C20.1547 19.7465 20.7322 19.4459 21.3425 19.4459C22.3195 19.4459 23.1254 20.1893 23.2181 21.1633ZM21.0581 18.5129C20.3497 18.5851 19.6904 18.924 19.216 19.4601C19.1332 19.4506 19.0524 19.4459 18.9727 19.4459C18.2249 19.4459 17.5224 19.8032 17.0778 20.3938H8.9238C8.47937 19.8034 7.77677 19.4459 7.02891 19.4459C6.9491 19.4459 6.86833 19.4506 6.78558 19.4601C6.31115 18.9239 5.65187 18.5851 4.94349 18.5129V11.3453C5.63149 10.8161 12.2091 5.75695 13.0007 5.1482L21.0581 11.3452V18.5129Z" fill="black"/>
</svg>
