<svg width="23" height="26" viewBox="0 0 23 26" fill="none" xmlns="http://www.w3.org/2000/svg">
<path d="M20.7712 2.43711H20.3415V2.00737C20.3415 1.37838 19.8298 0.866699 19.2008 0.866699C18.5718 0.866699 18.0601 1.37838 18.0601 2.00737V2.43711H16.4155V2.00737C16.4155 1.37838 15.9038 0.866699 15.2749 0.866699C14.6459 0.866699 14.1342 1.37838 14.1342 2.00737V2.43711H12.4896V2.00737C12.4896 1.37838 11.9779 0.866699 11.3489 0.866699C10.7199 0.866699 10.2082 1.37838 10.2082 2.00737V2.43711H8.56357V2.00737C8.56362 1.37838 8.05189 0.866699 7.42295 0.866699C6.79396 0.866699 6.28227 1.37838 6.28227 2.00737V2.43711H5.85249C4.79058 2.43711 3.9267 3.30104 3.9267 4.3629V13.0618L3.05717 12.1923C2.61241 11.7475 1.88877 11.7476 1.44401 12.1923L0.333572 13.3027C-0.111191 13.7474 -0.111191 14.4711 0.333572 14.9158L3.92665 18.5089V23.2075C3.92665 24.2694 4.79058 25.1334 5.85244 25.1334H17.9448C18.1411 25.1334 18.3003 24.9742 18.3003 24.7779C18.3003 24.5816 18.1411 24.4224 17.9448 24.4224H5.85249C5.18259 24.4224 4.63763 23.8774 4.63763 23.2075V19.2198L7.5375 22.1197C7.54594 22.1281 7.55475 22.1361 7.5639 22.1435C7.57011 22.1486 7.57656 22.1531 7.583 22.1577C7.58603 22.1598 7.58888 22.1623 7.59196 22.1643C7.60011 22.1698 7.6085 22.1746 7.61698 22.1793C7.6186 22.1802 7.62011 22.1812 7.62172 22.1821C7.63068 22.1869 7.63983 22.191 7.64902 22.195C7.6504 22.1955 7.65168 22.1963 7.6531 22.1969C7.66206 22.2006 7.67116 22.2037 7.68031 22.2066C7.6822 22.2072 7.684 22.208 7.6859 22.2086C7.69452 22.2112 7.70325 22.2132 7.71197 22.2151C7.71457 22.2157 7.71708 22.2165 7.71969 22.217C7.72817 22.2187 7.73671 22.2198 7.74529 22.2208C7.74827 22.2212 7.75116 22.2218 7.75415 22.2221C7.76567 22.2232 7.77728 22.2238 7.78884 22.2238H9.86246L10.3136 22.6749C10.383 22.7443 10.474 22.779 10.5649 22.779C10.6559 22.779 10.7469 22.7443 10.8163 22.6749C10.9551 22.5361 10.9551 22.311 10.8163 22.1722L10.3651 21.7211V19.6476C10.3651 19.6359 10.3646 19.6243 10.3634 19.6127C10.3632 19.6101 10.3626 19.6077 10.3623 19.6051C10.3613 19.5961 10.3601 19.5872 10.3583 19.5782C10.3578 19.576 10.3572 19.5737 10.3567 19.5715C10.3547 19.5624 10.3525 19.5534 10.3499 19.5444C10.3494 19.5428 10.3487 19.5413 10.3482 19.5397C10.3452 19.5303 10.342 19.5209 10.3382 19.5117C10.3377 19.5107 10.3372 19.5097 10.3368 19.5087C10.3327 19.4991 10.3283 19.4896 10.3234 19.4803C10.3227 19.479 10.322 19.478 10.3213 19.4767C10.3164 19.4678 10.3113 19.459 10.3056 19.4505C10.3039 19.4479 10.3018 19.4454 10.2999 19.4428C10.2951 19.4359 10.2903 19.429 10.2849 19.4225C10.2774 19.4133 10.2695 19.4045 10.2611 19.3961L7.36114 16.4961H19.5934C19.7897 16.4961 19.9489 16.337 19.9489 16.1407C19.9489 15.9444 19.7897 15.7852 19.5934 15.7852H7.03032C6.92591 15.7852 6.83225 15.8305 6.76722 15.9022L4.63759 13.7726V7.07399H21.9861V9.49833C21.9861 9.69465 22.1452 9.8538 22.3415 9.8538C22.5379 9.8538 22.697 9.69465 22.697 9.49833V4.3629C22.6971 3.301 21.8331 2.43711 20.7712 2.43711ZM9.65425 21.5129H8.64704L9.65425 20.5057V21.5129ZM2.19808 15.7749L2.80583 15.1672L8.3966 20.758L7.78889 21.3657L2.19808 15.7749ZM8.89928 20.2552L3.30851 14.6645L3.91627 14.0568L9.50704 19.6475L8.89928 20.2552ZM0.836299 13.8054L1.94674 12.695C2.11428 12.5274 2.38695 12.5274 2.55449 12.695L3.41359 13.5541L1.6954 15.2722L0.836347 14.4131C0.668755 14.2456 0.668755 13.973 0.836299 13.8054ZM19.2008 1.57764C19.4378 1.57764 19.6305 1.7704 19.6305 2.00737V3.57774C19.6305 3.81472 19.4378 4.00748 19.2008 4.00748C18.9638 4.00748 18.7711 3.81472 18.7711 3.57774V2.79306V2.00737C18.7711 1.7704 18.9639 1.57764 19.2008 1.57764ZM15.2749 1.57764C15.5118 1.57764 15.7046 1.7704 15.7046 2.00737V3.57774C15.7046 3.81472 15.5118 4.00748 15.2749 4.00748C15.0379 4.00748 14.8451 3.81472 14.8451 3.57774V2.79306V2.00737C14.8451 1.7704 15.0379 1.57764 15.2749 1.57764ZM10.9192 2.00737C10.9192 1.7704 11.112 1.57764 11.3489 1.57764C11.5859 1.57764 11.7787 1.7704 11.7787 2.00737V3.57774C11.7787 3.81472 11.5859 4.00748 11.3489 4.00748C11.112 4.00748 10.9192 3.81472 10.9192 3.57774V2.00737ZM7.42295 1.57764C7.65988 1.57764 7.85268 1.7704 7.85268 2.00737V3.57774C7.85268 3.81472 7.65992 4.00748 7.42295 4.00748C7.18597 4.00748 6.99321 3.81472 6.99321 3.57774V2.00737C6.99321 1.7704 7.18597 1.57764 7.42295 1.57764ZM4.63763 6.36305V4.3629C4.63763 3.69301 5.18264 3.14805 5.85249 3.14805H6.28227V3.57774C6.28227 4.20673 6.79396 4.71842 7.42295 4.71842C8.05189 4.71842 8.56362 4.20673 8.56362 3.57774V3.14805H10.2083V3.57774C10.2083 4.20673 10.7199 4.71842 11.3489 4.71842C11.9779 4.71842 12.4896 4.20673 12.4896 3.57774V3.14805H14.1342V3.57774C14.1342 4.20673 14.6459 4.71842 15.2749 4.71842C15.9039 4.71842 16.4156 4.20673 16.4156 3.57774V3.14805H18.0602V3.57774C18.0602 4.20673 18.5719 4.71842 19.2009 4.71842C19.8299 4.71842 20.3416 4.20673 20.3416 3.57774V3.14805H20.7713C21.4412 3.14805 21.9862 3.69305 21.9862 4.3629V6.36305H4.63763Z" fill="black"/>
<path d="M22.3416 10.5648C22.1453 10.5648 21.9861 10.7239 21.9861 10.9202V23.2075C21.9861 23.8774 21.4411 24.4224 20.7712 24.4224H19.3667C19.1704 24.4224 19.0113 24.5816 19.0113 24.7779C19.0113 24.9742 19.1704 25.1333 19.3667 25.1333H20.7712C21.8332 25.1333 22.6971 24.2694 22.6971 23.2075V10.9202C22.6971 10.7239 22.5379 10.5648 22.3416 10.5648Z" fill="black"/>
<path d="M7.03029 9.42957H19.5934C19.7897 9.42957 19.9488 9.27042 19.9488 9.0741C19.9488 8.87779 19.7897 8.71863 19.5934 8.71863H7.03029C6.83398 8.71863 6.67483 8.87779 6.67483 9.0741C6.67483 9.27042 6.83398 9.42957 7.03029 9.42957Z" fill="black"/>
<path d="M7.03029 11.7851H19.5934C19.7897 11.7851 19.9488 11.626 19.9488 11.4297C19.9488 11.2334 19.7897 11.0742 19.5934 11.0742H7.03029C6.83398 11.0742 6.67483 11.2334 6.67483 11.4297C6.67483 11.626 6.83398 11.7851 7.03029 11.7851Z" fill="black"/>
<path d="M7.03029 14.1407H19.5934C19.7897 14.1407 19.9488 13.9816 19.9488 13.7852C19.9488 13.5889 19.7897 13.4298 19.5934 13.4298H7.03029C6.83398 13.4298 6.67483 13.5889 6.67483 13.7852C6.67483 13.9816 6.83398 14.1407 7.03029 14.1407Z" fill="black"/>
<path d="M19.9489 18.4964C19.9489 18.3001 19.7898 18.1409 19.5935 18.1409H11.349C11.1526 18.1409 10.9935 18.3001 10.9935 18.4964C10.9935 18.6927 11.1526 18.8519 11.349 18.8519H19.5935C19.7898 18.8519 19.9489 18.6927 19.9489 18.4964Z" fill="black"/>
</svg>
