<svg width="28" height="21" viewBox="0 0 28 21" fill="none" xmlns="http://www.w3.org/2000/svg">
<path d="M5.80386 0.0966454C5.77117 0.153609 5.71045 0.254392 5.67309 0.320119C5.63573 0.390228 5.57034 0.46472 5.52363 0.486629C5.4816 0.508538 5.38352 0.622467 5.31346 0.736395C5.2434 0.850323 5.12664 0.994924 5.05658 1.05627C4.9912 1.122 4.88844 1.24907 4.83707 1.34109C4.71564 1.5558 4.6269 1.66535 4.57085 1.66535C4.52881 1.66535 4.37936 1.87129 4.37002 1.9414C4.36535 1.97646 4.32331 2.02904 4.08979 2.27004C4.00572 2.35768 3.90297 2.48913 3.86093 2.56362C3.82357 2.63373 3.74417 2.73452 3.68345 2.78272C3.6274 2.83092 3.49663 2.99305 3.39855 3.14641C3.2958 3.29539 3.19772 3.40494 3.18371 3.38741C3.16502 3.37427 3.15101 3.37865 3.15101 3.40056C3.15101 3.42685 3.11365 3.48381 3.07161 3.53201C3.02491 3.58021 2.94551 3.68538 2.8988 3.76863C2.84743 3.85189 2.74001 3.99211 2.65127 4.07536C2.5672 4.15862 2.49714 4.24187 2.49714 4.2594C2.49714 4.27693 2.49714 4.30322 2.49714 4.31636C2.49714 4.32951 2.42708 4.40838 2.33367 4.49164C2.24493 4.57489 2.09548 4.75893 2.00207 4.89477C1.90866 5.0306 1.80123 5.17082 1.76387 5.21026C1.69848 5.27161 1.69848 5.28037 1.76854 5.32419C1.81525 5.3461 1.90866 5.41183 1.97404 5.46879C2.0441 5.52137 2.13751 5.57833 2.18422 5.59148C2.23092 5.60463 2.31966 5.66159 2.38038 5.72294C2.52049 5.85001 2.57187 5.85439 2.63726 5.73608C2.66995 5.68788 2.726 5.61339 2.76803 5.56957C2.81006 5.52575 2.96419 5.33733 3.10431 5.1533C3.24442 4.96488 3.44526 4.71073 3.54801 4.58366C3.65543 4.46096 3.82357 4.25064 3.92165 4.11918C4.0244 3.98773 4.13182 3.85627 4.15984 3.83436C4.18787 3.80807 4.29062 3.681 4.39337 3.54954C4.49145 3.41809 4.59887 3.28225 4.63624 3.25157C4.66893 3.21652 4.72498 3.13326 4.76234 3.06316C4.84641 2.90979 4.90246 2.90103 4.97718 3.03248C5.00521 3.08506 5.06592 3.16394 5.11263 3.20776C5.15466 3.25157 5.22005 3.37427 5.25274 3.47505C5.38819 3.89571 5.50028 4.15862 5.53298 4.14109C5.57034 4.11918 5.71045 4.52231 5.7665 4.81151C5.85991 5.32419 5.96733 5.73608 6.00003 5.71855C6.07943 5.67474 6.20086 7.13827 6.16817 7.69915C6.14948 8.04093 6.15415 8.15048 6.20086 8.15486C6.22888 8.15486 6.2896 8.16362 6.33163 8.17239C6.37367 8.17677 6.56983 8.18992 6.77533 8.19868L7.1443 8.21621L7.14897 7.36175C7.15831 6.05596 7.0649 5.51699 6.56983 4.00963C6.46241 3.67661 6.1308 2.96237 5.85991 2.48037C5.65441 2.12106 5.62172 2.03342 5.66842 1.96331C5.69644 1.91949 5.74782 1.84062 5.78051 1.79242C5.80854 1.73984 5.90195 1.63029 5.98602 1.54704C6.1308 1.39805 6.14014 1.39805 6.26625 1.46378C6.3363 1.49884 6.46708 1.56018 6.55115 1.59962C6.63522 1.63906 6.69126 1.68725 6.67725 1.70916C6.66324 1.72669 6.78 1.82747 6.93413 1.93264C7.08826 2.03342 7.20502 2.12982 7.19101 2.14735C7.18167 2.16488 7.2237 2.22622 7.28442 2.2788C7.34981 2.33577 7.40118 2.37082 7.40118 2.3533C7.40118 2.30071 7.63471 2.5461 7.63471 2.59868C7.63938 2.65564 7.79817 2.84844 7.84488 2.84844C7.85889 2.84844 7.91494 2.88788 7.97098 2.93608C8.02703 2.98428 8.05505 3.02372 8.02703 3.02372C8.00368 3.02372 8.00835 3.04125 8.0317 3.05877C8.05972 3.0763 8.12978 3.15517 8.1905 3.23405C8.24654 3.31292 8.31193 3.3655 8.33528 3.35236C8.35864 3.33921 8.42402 3.39179 8.48007 3.47067C8.62953 3.66785 8.66689 3.7029 8.83036 3.78178C8.90509 3.81683 8.9985 3.90009 9.03119 3.96143C9.06855 4.02278 9.17131 4.10603 9.26005 4.14547C9.34879 4.18491 9.47022 4.26378 9.52627 4.32075C9.57764 4.37333 9.65704 4.42591 9.6944 4.43467C9.7271 4.44344 9.76913 4.45658 9.78314 4.46973C9.8532 4.54422 10.1101 4.68882 10.1708 4.68882C10.2082 4.68882 10.2922 4.73702 10.3623 4.79837C10.4323 4.85971 10.5444 4.92106 10.6145 4.9342C10.6846 4.95173 10.792 4.99993 10.8574 5.04375C10.9227 5.08319 11.0535 5.13139 11.1469 5.14891C11.2403 5.16644 11.3291 5.20588 11.3431 5.23655C11.3524 5.26722 11.4365 5.30666 11.5206 5.32419C11.6046 5.34172 11.7401 5.38115 11.8148 5.41183C12.025 5.49508 12.2959 5.55643 12.6088 5.59148C12.7629 5.60463 12.9124 5.63968 12.9404 5.66159C13.0432 5.73608 14.2015 5.8281 15.0982 5.8281H15.9949L16.051 5.93765C16.079 5.99899 16.1164 6.04719 16.135 6.04719C16.1537 6.04719 16.1817 6.08663 16.1958 6.13921C16.2098 6.19179 16.2425 6.21808 16.2658 6.20494C16.2892 6.19179 16.3686 6.29258 16.4433 6.4328C16.5134 6.56863 16.6301 6.73076 16.6955 6.79211C16.7656 6.85345 16.8683 6.98929 16.9337 7.09884C16.9944 7.20838 17.0691 7.30917 17.0925 7.32669C17.1205 7.34422 17.1392 7.37489 17.1392 7.3968C17.1392 7.41433 17.1999 7.48444 17.27 7.55455C17.34 7.62028 17.4428 7.76488 17.4988 7.87442C17.5502 7.97959 17.6249 8.08037 17.6623 8.09352C17.695 8.10666 17.723 8.16362 17.723 8.22497C17.723 8.28632 17.7043 8.31699 17.6763 8.30384C17.6483 8.2907 17.5502 8.34766 17.4521 8.43092C17.1579 8.69821 16.7842 9.00056 16.6675 9.07505C16.6068 9.1101 16.5694 9.1583 16.5881 9.17145C16.6021 9.18898 16.5928 9.20212 16.5601 9.20212C16.5274 9.20212 16.4573 9.25032 16.4059 9.31167C16.3546 9.37301 16.2985 9.41245 16.2752 9.39931C16.2238 9.36863 15.9949 9.62716 15.9949 9.7148C15.9949 9.75423 16.0697 9.84625 16.1584 9.92513C16.2471 10.004 16.3686 10.1355 16.4246 10.2143C16.4853 10.2976 16.5694 10.3677 16.6068 10.3765C16.6488 10.3808 16.7796 10.2976 16.901 10.188C17.0224 10.0829 17.1485 9.97771 17.1812 9.96018C17.2186 9.93827 17.3494 9.83749 17.4755 9.72794C17.6016 9.6184 17.7931 9.46503 17.9005 9.38616C18.0033 9.3029 18.1387 9.20212 18.1947 9.15392C18.3349 9.03999 18.3535 9.04438 18.4703 9.22841C18.5263 9.31167 18.5871 9.37301 18.5964 9.35987C18.6291 9.33358 18.7505 9.47818 18.8393 9.64907C18.8766 9.71918 18.9233 9.77176 18.9467 9.77176C18.9654 9.77176 18.9841 9.80244 18.9841 9.83749C18.9841 9.87254 19.0121 9.90322 19.0448 9.90322C19.0775 9.90322 19.1615 9.98647 19.2316 10.0873C19.4371 10.394 19.4698 10.429 19.5258 10.429C19.5772 10.429 19.6379 10.5211 19.6379 10.5999C19.6379 10.6218 19.5539 10.692 19.4511 10.7577C19.3484 10.8234 19.2736 10.8935 19.2876 10.911C19.3017 10.9286 19.2409 10.9768 19.1522 11.0162C19.0681 11.0513 18.9093 11.174 18.8066 11.2835C18.6992 11.393 18.6057 11.4807 18.5917 11.4719C18.559 11.4544 18.2368 11.7392 18.2368 11.7786C18.2461 11.8794 18.7972 12.4885 18.8813 12.4885C18.9 12.4885 19.0308 12.3921 19.1755 12.2782C19.3203 12.1643 19.5165 12.0153 19.6099 11.9452C19.6986 11.875 19.764 11.8006 19.75 11.783C19.736 11.7611 19.75 11.7436 19.7827 11.7436C19.8154 11.7436 19.9415 11.6647 20.0676 11.5639C20.3292 11.358 20.4039 11.3624 20.6561 11.6121C20.7542 11.6998 20.8383 11.7874 20.8476 11.8006C20.899 11.8707 21.4127 12.3571 21.4127 12.3395C21.4127 12.3264 21.4501 12.3483 21.4921 12.3921C21.6136 12.5017 21.7864 12.7164 21.7864 12.747C21.7864 12.7952 21.4361 13.1458 21.3847 13.1458C21.3287 13.1458 21.0858 13.3561 21.0858 13.4087C21.0858 13.4306 21.0344 13.4613 20.969 13.4788C20.9036 13.492 20.8663 13.5226 20.8803 13.5445C20.8943 13.5664 20.8756 13.584 20.8429 13.584C20.8102 13.584 20.7168 13.6585 20.6374 13.7461L20.4926 13.9082L20.6374 14.1186C20.7168 14.2325 20.8289 14.3464 20.885 14.3771C20.9457 14.4078 21.0017 14.4647 21.0204 14.5129C21.0578 14.6268 21.2119 14.6093 21.3006 14.4822C21.3427 14.4209 21.3987 14.3727 21.4221 14.3727C21.4501 14.3727 21.6089 14.2588 21.7817 14.1186C21.9498 13.9783 22.1507 13.8118 22.2254 13.7549C22.3001 13.6979 22.4169 13.6059 22.4823 13.5489C22.6411 13.4131 22.7672 13.4481 23.0287 13.6935C23.1408 13.8031 23.2856 13.8995 23.351 13.917C23.4117 13.9301 23.4584 13.9564 23.4444 13.9783C23.4164 14.0222 23.5939 14.1668 23.8321 14.2851C23.9395 14.342 24.0282 14.4121 24.0282 14.4428C24.0282 14.491 24.1543 14.5699 24.2197 14.5567C24.2337 14.5567 24.3131 14.6093 24.3972 14.6838C24.4813 14.7539 24.5653 14.8109 24.584 14.8109C24.6214 14.8109 24.7521 14.9073 24.939 15.0694C24.995 15.1132 25.1164 15.1833 25.2192 15.2228C25.3173 15.2622 25.4294 15.3323 25.4621 15.3805C25.4994 15.4287 25.5508 15.4682 25.5788 15.4682C25.6068 15.4682 25.7003 15.5164 25.7843 15.5777C25.8684 15.6391 25.9571 15.6873 25.9805 15.6873C26.0412 15.6873 26.2981 15.9151 26.3588 16.0247C26.4289 16.1517 26.541 16.1517 26.6904 16.0247C26.7558 15.9721 26.9193 15.8494 27.0547 15.7574C27.1855 15.6653 27.2976 15.5733 27.2976 15.547C27.2976 15.4463 26.6764 14.9599 26.1533 14.6444C25.845 14.4603 25.5041 14.25 25.392 14.1755C24.9063 13.8513 24.5139 13.5796 24.4486 13.527C24.4112 13.492 24.2244 13.3517 24.0329 13.2115C23.8414 13.0713 23.5798 12.8697 23.4491 12.7602C23.3183 12.655 23.0754 12.4578 22.9073 12.3176C22.543 12.024 21.2446 10.8146 20.9177 10.4685C20.572 10.1004 20.2031 9.68851 19.9789 9.42122C19.9509 9.38616 19.7921 9.19774 19.6286 9.00494C19.4651 8.81214 19.283 8.58428 19.2176 8.50103C19.1569 8.41777 19.0915 8.3389 19.0775 8.32575C19.0635 8.31261 19.0354 8.26879 19.0074 8.22935C18.9467 8.13295 18.2788 7.22591 16.9571 5.4425L16.4947 4.82028H14.9627C13.9679 4.82028 13.4261 4.80275 13.4261 4.77646C13.4261 4.75017 13.3701 4.73264 13.3 4.73264C13.1366 4.73264 12.464 4.58366 12.095 4.46535C11.3384 4.22434 10.4744 3.79054 9.85787 3.34359C9.54028 3.11574 8.81635 2.43655 8.57348 2.14735C8.36331 1.8932 8.0317 1.56456 7.64872 1.22278C7.36849 0.964251 6.0047 0.000244141 5.9253 0.000244141C5.89728 0.000244141 5.84123 0.0440636 5.80386 0.0966454Z" fill="black"/>
<path d="M0.88299 6.30127C0.826944 6.3407 0.724193 6.4634 0.654135 6.57294C0.584077 6.68249 0.453303 6.84462 0.369234 6.93225C0.280494 7.02427 0.201095 7.15135 0.182413 7.21707C0.168401 7.28718 0.135708 7.38797 0.117026 7.44931C-0.0324307 7.83492 -0.0371013 8.18984 0.0936732 8.65432C0.126367 8.77263 0.168401 8.93038 0.182413 9.00049C0.201095 9.0706 0.280494 9.18891 0.364563 9.2634C0.448632 9.33789 0.584077 9.48249 0.668146 9.58765C0.756886 9.68844 0.840956 9.76293 0.864308 9.74978C0.88299 9.74102 0.957718 9.78045 1.03245 9.83742C1.10717 9.89876 1.21927 9.96011 1.28465 9.97764C1.35004 9.99078 1.42944 10.0434 1.46213 10.0872C1.49483 10.131 1.65363 10.2274 1.81242 10.3019C1.97122 10.3808 2.12068 10.4684 2.13936 10.4991C2.15804 10.5341 2.20008 10.5604 2.2281 10.5604C2.25612 10.5604 2.3542 10.613 2.44761 10.6787C2.54102 10.7488 2.62509 10.8014 2.6391 10.8058C2.76054 10.8233 2.91933 10.8803 2.90065 10.9022C2.86796 10.9285 3.08747 11.0906 3.16687 11.1038C3.19957 11.1082 3.28831 11.1564 3.35836 11.2089C3.43309 11.2615 3.52183 11.3053 3.5592 11.3053C3.59656 11.3053 3.61057 11.3229 3.59656 11.3492C3.58255 11.3711 3.59656 11.393 3.63859 11.393C3.67596 11.393 3.7647 11.4412 3.83943 11.4981C3.90948 11.5551 4.04493 11.6296 4.13834 11.669C4.22708 11.7041 4.36252 11.783 4.43725 11.8487C4.50731 11.91 4.58671 11.9626 4.61006 11.9626C4.63341 11.9626 4.72215 12.0108 4.80622 12.0722C4.89029 12.1335 4.96969 12.1729 4.9837 12.1598C4.99771 12.1467 5.09579 12.2036 5.20789 12.2913C5.31531 12.3789 5.5068 12.4884 5.6329 12.5366C5.75434 12.5892 5.86643 12.6549 5.88044 12.69C5.89445 12.7251 5.93182 12.7513 5.95984 12.7513C5.99253 12.7513 6.08594 12.7995 6.17468 12.8653C6.25875 12.9266 6.39887 12.9967 6.48294 13.023C6.56234 13.0537 6.66976 13.1194 6.71646 13.1764C6.76317 13.2333 6.83323 13.2772 6.86592 13.2772C6.89861 13.2772 6.99202 13.3254 7.06675 13.3867C7.14615 13.4481 7.23022 13.4963 7.25824 13.4963C7.29094 13.4963 7.33764 13.5138 7.37034 13.5401C7.64123 13.746 7.73931 13.8074 7.90744 13.8687C8.01487 13.9125 8.10361 13.9607 8.10361 13.9826C8.10361 14.0046 8.19235 14.0615 8.30444 14.1141C8.41186 14.1667 8.50994 14.2193 8.52395 14.2368C8.56599 14.285 8.75748 14.3726 8.82287 14.3726C8.85556 14.3726 8.92095 14.4164 8.95831 14.4734C8.99568 14.5304 9.16381 14.6399 9.33195 14.7144C9.50009 14.7933 9.64955 14.8853 9.66356 14.9204C9.67757 14.9554 9.70559 14.9861 9.72428 14.9817C9.80367 14.9729 9.97181 15.0431 9.94846 15.0737C9.93445 15.0956 10.0279 15.1482 10.154 15.192C10.2801 15.2359 10.3875 15.2884 10.3922 15.3147C10.4062 15.3673 10.5416 15.4593 10.6304 15.4769C10.6911 15.49 10.7191 15.5075 10.8732 15.6258C10.9059 15.6521 10.9853 15.6916 11.046 15.7091C11.1067 15.7266 11.2002 15.7792 11.2515 15.8274C11.3917 15.9501 11.6065 16.0903 11.6065 16.0596C11.6065 16.0202 11.8027 16.1298 11.9194 16.2305C11.9755 16.2831 12.0409 16.3226 12.0642 16.3226C12.0876 16.3226 12.1763 16.3708 12.2604 16.4321C12.3444 16.4934 12.4659 16.5548 12.5359 16.5679C12.6013 16.5811 12.6527 16.6118 12.648 16.6424C12.6387 16.6731 12.6667 16.695 12.7041 16.695C12.7414 16.695 12.7741 16.7169 12.7741 16.7388C12.7741 16.7651 12.9189 16.844 13.0964 16.9229C13.2785 16.9974 13.414 17.0762 13.4 17.0981C13.386 17.1157 13.4093 17.1332 13.4513 17.1332C13.4934 17.1332 13.6195 17.1902 13.7269 17.2603C13.8343 17.3304 13.9978 17.4093 14.0865 17.4312C14.1753 17.4531 14.2407 17.4925 14.236 17.5232C14.2267 17.5495 14.2593 17.5714 14.3107 17.5714C14.3574 17.5714 14.4789 17.624 14.5769 17.6897C14.675 17.751 14.7918 17.808 14.8291 17.8124C14.9646 17.8299 15.2028 17.9307 15.2028 17.9701C15.2028 17.992 15.2355 18.0096 15.2775 18.0096C15.3196 18.0096 15.4083 18.049 15.4784 18.0928C15.5484 18.141 15.6652 18.1936 15.7446 18.2111C15.8193 18.2287 15.9034 18.2549 15.9267 18.2725C15.9547 18.2944 16.0528 18.3207 16.1509 18.3382C16.2443 18.3557 16.3237 18.382 16.3237 18.3995C16.3237 18.4565 17.1317 18.7545 17.2858 18.7545C17.3419 18.7545 17.4213 18.7851 17.4633 18.8202C17.5007 18.8553 17.5614 18.8859 17.5988 18.8859C17.6361 18.8859 17.7669 18.921 17.893 18.9692C18.2947 19.1138 18.5842 19.1927 18.6963 19.1927C18.7571 19.1927 18.8738 19.219 18.9532 19.2496C19.3222 19.3986 20.289 19.6089 20.8214 19.6528C20.9942 19.6703 21.125 19.6966 21.111 19.7185C21.097 19.736 21.1857 19.7623 21.3118 19.7754C21.4333 19.7842 21.8489 19.8368 22.2319 19.885C23.1193 19.9989 23.4556 20.0252 24.6466 20.0559C25.548 20.0778 25.632 20.0734 25.945 19.9858C26.809 19.7404 27.4676 19.1927 27.7711 18.4828C27.944 18.0797 28 17.7992 28 17.3742V16.9667L25.7955 16.9448C23.5864 16.9229 22.9091 16.8878 21.905 16.7213C20.8588 16.5504 19.85 16.3182 18.9392 16.0333C18.5422 15.9107 18.1873 15.8055 18.1592 15.8055C18.1265 15.8055 18.0985 15.788 18.0985 15.7661C18.0985 15.7485 18.0705 15.731 18.0425 15.731C17.9397 15.731 17.071 15.3848 16.3704 15.065C15.6979 14.7582 15.2028 14.5041 14.6657 14.2017C14.5116 14.1141 14.3481 14.0221 14.3061 14.0002C14.264 13.9739 13.9604 13.7942 13.6288 13.597C13.3019 13.3999 12.9796 13.2114 12.9142 13.1808C12.8489 13.1457 12.648 13.0318 12.4659 12.9266C12.0362 12.6681 12.0082 12.6506 11.6766 12.4621C11.5224 12.3701 11.2282 12.1949 11.0227 12.0722C10.8172 11.9495 10.6163 11.8312 10.579 11.818C10.5416 11.8005 10.3314 11.6778 10.1119 11.5463C9.54213 11.2089 8.57066 10.6481 8.40719 10.5648C8.33246 10.5254 8.25773 10.4859 8.24372 10.4728C8.16432 10.3895 6.86125 9.64024 6.80053 9.64024C6.77251 9.64024 6.74916 9.62271 6.74916 9.60518C6.74916 9.58765 6.6791 9.53507 6.5997 9.49125C6.51563 9.44305 6.19804 9.2634 5.89445 9.08374C5.59554 8.90847 5.32932 8.76387 5.30597 8.76387C5.28262 8.76387 5.25459 8.74634 5.24525 8.72443C5.2219 8.67185 4.60072 8.32568 4.52599 8.32568C4.48863 8.32568 4.4606 8.30815 4.4606 8.28625C4.4606 8.24681 3.87679 7.8875 3.80673 7.8875C3.78805 7.8875 3.76003 7.86997 3.75069 7.85244C3.74135 7.83053 3.56387 7.71661 3.35369 7.5983C2.98939 7.39235 2.53168 7.12944 1.6583 6.61676C0.925025 6.18734 0.995083 6.21801 0.88299 6.30127ZM1.53219 7.69908C1.60692 7.75166 1.69566 7.79986 1.73302 7.79986C1.77039 7.79986 1.85446 7.84806 1.91984 7.90064C1.98523 7.95761 2.14403 8.05839 2.27013 8.11973C2.39624 8.18546 2.54102 8.27748 2.5924 8.32568C2.64844 8.37826 2.70916 8.40456 2.73251 8.39141C2.76054 8.37388 2.77922 8.38703 2.77922 8.40894C2.77922 8.43523 2.80724 8.45714 2.83994 8.45714C2.8773 8.45714 2.94269 8.49657 2.98939 8.54477C3.0361 8.59297 3.11083 8.63241 3.15753 8.63241C3.20424 8.63241 3.28831 8.68061 3.34902 8.73758C3.40974 8.79454 3.59656 8.90847 3.76937 8.99172C3.94218 9.07498 4.07295 9.15823 4.05427 9.17138C4.04026 9.18891 4.0496 9.20205 4.07762 9.20205C4.11032 9.20205 4.23642 9.27216 4.36719 9.3598C4.4933 9.44305 4.61006 9.51316 4.62407 9.51316C4.70347 9.5044 4.74084 9.52193 4.87161 9.64024C4.95568 9.71035 5.03975 9.77169 5.0631 9.77169C5.09112 9.77169 5.18921 9.81989 5.28262 9.88124C5.37603 9.94258 5.48345 9.99078 5.52081 9.99078C5.56285 9.99078 5.6329 10.039 5.67961 10.0959C5.72631 10.1529 5.88511 10.2537 6.03457 10.3194C6.18402 10.3851 6.32414 10.464 6.34282 10.4991C6.3615 10.5341 6.41755 10.5604 6.46426 10.5604C6.51096 10.5604 6.59503 10.6086 6.65575 10.67C6.71646 10.7313 6.84724 10.8014 6.94532 10.8321C7.0434 10.8584 7.11346 10.8891 7.09945 10.9022C7.06675 10.9373 7.36567 11.1301 7.4077 11.1038C7.43105 11.0906 7.44973 11.1038 7.44973 11.1301C7.44973 11.1564 7.47309 11.1651 7.49644 11.152C7.52446 11.1388 7.54314 11.1432 7.54314 11.1651C7.54314 11.187 7.59919 11.2308 7.67392 11.2659C7.74398 11.301 7.80936 11.336 7.82338 11.3492C7.87475 11.4017 8.27642 11.6384 8.38851 11.6822C8.4539 11.7085 8.56599 11.783 8.64072 11.8487C8.71077 11.91 8.78083 11.9539 8.79484 11.9407C8.80885 11.9319 8.90226 11.9801 9.00502 12.0503C9.11244 12.1247 9.22453 12.1817 9.26189 12.1817C9.29926 12.1817 9.40201 12.2518 9.49075 12.3351C9.57949 12.4183 9.68224 12.4884 9.71961 12.4884C9.80834 12.4884 10.1166 12.6462 10.0839 12.6769C10.0699 12.69 10.1073 12.7119 10.168 12.7294C10.2287 12.747 10.3174 12.7952 10.3688 12.839C10.4202 12.8828 10.5463 12.9529 10.649 12.9967C10.7518 13.0405 10.8779 13.1194 10.9339 13.1764C10.9853 13.229 11.06 13.2772 11.0974 13.2859C11.1301 13.2947 11.2282 13.3429 11.3123 13.3955C11.3917 13.4524 11.5084 13.4963 11.5691 13.4963C11.6532 13.4963 11.6625 13.505 11.6112 13.5357C11.5551 13.5708 11.5691 13.5839 11.6672 13.6058C11.7373 13.6233 11.7933 13.654 11.7933 13.6759C11.7933 13.6934 11.9194 13.7636 12.0689 13.8293C12.223 13.895 12.3398 13.9651 12.3304 13.9783C12.3164 13.9958 12.3911 14.044 12.4939 14.0878C12.5966 14.1316 12.7134 14.2017 12.7554 14.2456C12.7975 14.2894 12.9049 14.3376 12.9936 14.3551C13.0777 14.3682 13.1711 14.4208 13.1991 14.4646C13.2225 14.5085 13.3206 14.583 13.4187 14.6312C13.8156 14.8196 13.895 14.8634 13.895 14.9028C13.895 14.9247 13.9231 14.9423 13.9604 14.9423C13.9931 14.9423 14.0538 14.9729 14.0865 15.0124C14.1192 15.0518 14.264 15.1307 14.4041 15.1877C14.5489 15.249 14.675 15.3147 14.689 15.3323C14.703 15.3542 14.8058 15.4199 14.9226 15.4769C15.0393 15.5338 15.1748 15.6039 15.2261 15.6346C15.2775 15.6609 15.3803 15.6916 15.4503 15.7091C15.5204 15.7222 15.5718 15.7485 15.5577 15.7661C15.5484 15.7836 15.6045 15.8274 15.6839 15.8581C15.7679 15.8887 15.9314 15.9632 16.0482 16.0202C16.1696 16.0772 16.3097 16.1254 16.3611 16.1254C16.4171 16.1254 16.4778 16.1517 16.4965 16.178C16.5386 16.2393 16.9776 16.4277 17.1644 16.4628C17.2298 16.4759 17.3045 16.5022 17.3279 16.5197C17.3559 16.5416 17.4586 16.5723 17.5614 16.5898C17.6642 16.6074 17.7202 16.6293 17.6828 16.6424C17.5894 16.6731 18.5048 16.9711 18.8598 17.0236C18.9719 17.0412 19.0233 17.0675 19.0046 17.0981C18.9859 17.1244 18.9906 17.1376 19.0139 17.12C19.0373 17.1069 19.1681 17.1332 19.3082 17.177C19.4436 17.2252 19.5697 17.2603 19.5884 17.2559C19.6164 17.2471 19.878 17.3128 20.1816 17.4005C20.261 17.4224 20.3871 17.4399 20.4665 17.4399C20.672 17.4399 20.9008 17.4881 20.8775 17.5276C20.8635 17.5451 20.9429 17.5714 21.0549 17.5845C21.1624 17.5977 21.5687 17.659 21.9517 17.7204C22.3393 17.7861 22.8624 17.8431 23.1193 17.8562C24.0254 17.8956 24.9969 17.9219 25.8843 17.9219H26.7857L26.8137 18.0271C26.8417 18.1366 26.6782 18.4916 26.5988 18.4916C26.5755 18.4916 26.4634 18.5792 26.3513 18.6844C26.0244 18.9999 25.7535 19.0612 24.7447 19.0612C23.3575 19.0612 21.7368 18.8859 20.4338 18.6011C20.2656 18.5661 20.0041 18.5135 19.8546 18.4872C19.7005 18.4653 19.5604 18.4346 19.5417 18.4215C19.5183 18.4127 19.2241 18.3251 18.8785 18.2287C18.5329 18.1366 18.0752 18.0008 17.8603 17.9307C17.482 17.808 16.1276 17.3041 15.9641 17.2252C15.9174 17.2077 15.5204 17.0193 15.0814 16.8133C14.6423 16.6074 14.0445 16.305 13.7503 16.1385C13.4607 15.9764 13.1338 15.7923 13.0263 15.731C12.7414 15.5689 12.0502 15.1614 11.7886 14.9992C11.6625 14.9204 11.5504 14.8546 11.5364 14.8546C11.5224 14.8546 11.3356 14.7495 11.1254 14.6224C10.2754 14.1053 10.1259 14.0221 10.0465 14.0221C10.0045 14.0221 9.97648 14.0046 9.9905 13.9826C10.0138 13.952 9.90643 13.8819 9.4347 13.6365C9.35997 13.597 9.28525 13.5532 9.27124 13.5401C9.21986 13.4831 8.61736 13.1457 8.57066 13.1457C8.54731 13.1457 8.52395 13.1282 8.52395 13.1107C8.52395 13.0887 8.42587 13.0186 8.30444 12.9529C8.17834 12.8872 7.95415 12.7601 7.80002 12.6637C7.6459 12.5673 7.4871 12.4753 7.44973 12.4578C7.41237 12.4402 7.15549 12.2913 6.8846 12.1291C6.61371 11.967 6.36618 11.8312 6.33815 11.8312C6.30546 11.8312 6.28211 11.818 6.28211 11.7961C6.28211 11.7786 6.16067 11.6953 6.01589 11.6164C5.86643 11.5332 5.60955 11.3842 5.44141 11.2834C5.27327 11.1826 4.99304 11.0161 4.81089 10.911C4.63341 10.8058 4.40923 10.6744 4.31582 10.6174C4.22708 10.5648 4.11499 10.5166 4.06361 10.5166C4.01691 10.5166 3.99355 10.5035 4.00757 10.4859C4.03559 10.4596 3.89547 10.3632 3.64326 10.2318C3.40974 10.1091 3.31633 10.0565 3.29298 10.0346C3.23226 9.97326 2.64844 9.64024 2.60641 9.64024C2.57839 9.64024 2.53168 9.61395 2.50366 9.57889C2.42893 9.49564 1.84045 9.17576 1.78907 9.19329C1.76572 9.19767 1.75638 9.18891 1.76572 9.17138C1.77973 9.14947 1.68165 9.0706 1.5462 8.99172C1.40142 8.90409 1.25196 8.76387 1.16789 8.64117C1.05113 8.4659 1.03245 8.39141 1.03245 8.1285C1.02778 7.58515 1.20059 7.44055 1.53219 7.69908Z" fill="black"/>
</svg>
