<svg width="26" height="26" viewBox="0 0 26 26" fill="none" xmlns="http://www.w3.org/2000/svg">
<path d="M23.994 17.1561C23.4021 17.5312 22.7219 17.775 22.0078 17.8681C21.2937 17.9611 20.5656 17.9008 19.8818 17.6919C19.8198 17.6718 19.7535 17.6656 19.6883 17.6738C19.6232 17.6821 19.5612 17.7045 19.5076 17.7391L17.6672 18.9265L18.1408 19.5334L19.8106 18.4543C20.5911 18.6617 21.4126 18.7081 22.2152 18.5901C23.0179 18.4721 23.7815 18.1927 24.4505 17.7723C24.6915 17.6241 24.9199 17.4597 25.1339 17.2803L24.5793 16.7334C24.3962 16.8875 24.2006 17.0288 23.994 17.1561Z" fill="black"/>
<path d="M19.8063 10.9046C19.2276 11.2859 18.764 11.8268 18.4681 12.4659C18.1721 13.105 18.0557 13.8168 18.1319 14.5207L13.0063 17.9091L7.87984 14.5228C7.95774 13.8187 7.84186 13.1062 7.54548 12.4668C7.24909 11.8275 6.78417 11.2871 6.20391 10.9075C5.43367 10.36 4.49704 10.1191 3.5677 10.2295C3.12933 10.2737 2.70585 10.4173 2.32748 10.6498C1.94911 10.8824 1.62519 11.1982 1.37886 11.5748C1.13252 11.9513 0.96984 12.3794 0.902432 12.8283C0.835025 13.2772 0.864552 13.7359 0.988906 14.1717C1.23802 15.1012 1.80562 15.906 2.5864 16.4367C3.14545 16.85 3.80614 17.0924 4.49268 17.1362C5.17922 17.1799 5.86381 17.0232 6.46794 16.684L10.4469 19.5974L6.6604 22.1014C6.48141 22.2187 6.32708 22.3719 6.20654 22.5518C6.086 22.7317 6.0017 22.9348 5.95864 23.1489C5.91558 23.363 5.91464 23.5839 5.95587 23.7984C5.99709 24.0129 6.07965 24.2167 6.19865 24.3978C6.3172 24.5784 6.46954 24.7328 6.64674 24.8518C6.82394 24.9709 7.02242 25.0522 7.23052 25.0911C7.43863 25.1299 7.65216 25.1255 7.85858 25.078C8.065 25.0306 8.26015 24.9411 8.43256 24.8147L13.0063 21.4697L17.58 24.8172C17.7526 24.9475 17.949 25.0404 18.1572 25.0905C18.3655 25.1406 18.5814 25.1469 18.7921 25.1089C19.0027 25.0708 19.2038 24.9894 19.3832 24.8693C19.5626 24.7493 19.7166 24.5931 19.8361 24.4102C19.9556 24.2273 20.038 24.0213 20.0785 23.8048C20.119 23.5882 20.1167 23.3654 20.0717 23.1498C20.0267 22.9342 19.9399 22.7302 19.8167 22.55C19.6934 22.3698 19.5361 22.217 19.3542 22.101L15.5633 19.5991L19.5451 16.6844C20.1491 17.0237 20.8337 17.1806 21.5202 17.137C22.2067 17.0934 22.8675 16.8511 23.4266 16.438C25.0884 15.2812 25.631 13.0988 24.6351 11.5726C23.6393 10.0464 21.4717 9.74788 19.8063 10.9046ZM7.96435 24.1363C7.79159 24.2562 7.58022 24.3018 7.37536 24.2632C7.17049 24.2247 6.98835 24.105 6.86781 23.9299C6.80947 23.8411 6.769 23.7412 6.7488 23.636C6.72861 23.5308 6.72911 23.4225 6.75026 23.3175C6.77141 23.2125 6.8128 23.1129 6.87195 23.0247C6.93111 22.9365 7.00684 22.8615 7.09464 22.804L11.1577 20.117L12.3056 20.9568L7.96435 24.1363ZM19.2612 23.3178C19.2929 23.476 19.2777 23.6404 19.2175 23.7895C19.1574 23.9387 19.0551 24.0657 18.924 24.1541C18.7929 24.2425 18.639 24.2882 18.4824 24.2851C18.3257 24.2821 18.1736 24.2305 18.0458 24.1371L6.70891 15.8392C6.63979 15.7886 6.55701 15.7617 6.47227 15.7623C6.38753 15.7629 6.30511 15.791 6.23666 15.8425C5.75768 16.1649 5.1945 16.3284 4.62278 16.311C4.05106 16.2936 3.49819 16.0963 3.03844 15.7453C2.41986 15.3269 1.96936 14.6913 1.77047 13.9565C1.6753 13.6355 1.65092 13.2966 1.69912 12.9646C1.74732 12.6327 1.86688 12.316 2.04905 12.0378C2.23123 11.7597 2.4714 11.527 2.752 11.3569C3.0326 11.1868 3.34652 11.0835 3.6708 11.0547C4.40589 10.9696 5.14596 11.1622 5.75389 11.5968C6.24123 11.9053 6.62539 12.3601 6.85479 12.9003C7.0842 13.4405 7.14786 14.0401 7.03723 14.6187C7.01644 14.7035 7.02205 14.7929 7.05325 14.8742C7.08445 14.9556 7.13967 15.0247 7.21109 15.0719L18.918 22.8036C19.0058 22.8611 19.0814 22.9363 19.1404 23.0246C19.1994 23.113 19.2405 23.2127 19.2612 23.3178ZM22.9729 15.7445C22.5131 16.0953 21.9601 16.2926 21.3883 16.3098C20.8165 16.327 20.2533 16.1634 19.7743 15.8408C19.7059 15.7893 19.6235 15.7613 19.5387 15.7607C19.454 15.7601 19.3712 15.787 19.3021 15.8375L14.829 19.1125L13.7567 18.4036L18.8003 15.0678C18.8716 15.0206 18.9267 14.9516 18.9579 14.8704C18.9891 14.7892 18.9948 14.7 18.9742 14.6153C18.8657 14.0367 18.9306 13.4377 19.1601 12.8979C19.3896 12.3582 19.7729 11.9032 20.2591 11.5934C21.553 10.694 23.2164 10.8925 23.964 12.0346C24.7116 13.1767 24.2664 14.8451 22.9729 15.7445Z" fill="black"/>
<path d="M5.53345 1.58434L5.08601 0.866699C4.10963 1.55618 3.3774 2.57355 3.00561 3.75724C2.63381 4.94093 2.64377 6.22307 3.03391 7.40003L3.79581 7.11229C3.46592 6.11624 3.45778 5.03127 3.77268 4.02973C4.08757 3.02818 4.70705 2.16749 5.53345 1.58434Z" fill="black"/>
<path d="M4.60052 7.93406C4.30142 7.76907 4.03635 7.59021 3.80913 7.40003L2.73385 7.70208C3.00213 7.92692 3.31527 8.13836 3.66874 8.33337L4.60052 7.93406Z" fill="black"/>
<path d="M17.6439 14.8667L18.8504 9.0399C19.8313 8.95745 20.7412 8.51177 21.3897 7.7961C22.0382 7.08043 22.3751 6.15023 22.3298 5.20013C22.2845 4.25004 21.8606 3.35367 21.1468 2.69857C20.433 2.04348 19.4846 1.68043 18.5 1.68538C17.643 1.68244 16.8107 1.96185 16.1403 2.47748C15.7912 1.98122 15.3216 1.575 14.7727 1.29424C14.2237 1.01348 13.6119 0.866699 12.9908 0.866699C12.3696 0.866699 11.7579 1.01348 11.2089 1.29424C10.6599 1.575 10.1904 1.98122 9.84122 2.47748C9.17086 1.96185 8.33851 1.68244 7.48159 1.68538C6.50035 1.68529 5.55683 2.05051 4.84718 2.70511C4.13753 3.3597 3.71636 4.25331 3.67123 5.20015C3.6261 6.14698 3.96048 7.07419 4.60486 7.78901C5.24923 8.50383 6.15403 8.95125 7.13112 9.03826L8.33763 14.8667L9.16825 14.7062L8.93093 13.5567H17.0506L16.8133 14.703L17.6439 14.8667ZM15.5983 12.738L15.953 10.34L15.1139 10.2238L14.7423 12.738H13.4146V8.2351H12.567V12.738H11.2393L10.8676 10.2238L10.0285 10.34L10.3832 12.738H8.76142L7.8969 8.56258C7.87736 8.47012 7.82535 8.38702 7.74967 8.32734C7.67399 8.26767 7.57929 8.23508 7.48159 8.2351C6.69483 8.2351 5.94029 7.9332 5.38397 7.39581C4.82765 6.85843 4.51511 6.12957 4.51511 5.36959C4.51511 4.60962 4.82765 3.88076 5.38397 3.34338C5.94029 2.80599 6.69483 2.50409 7.48159 2.50409C7.88545 2.50309 8.28518 2.58255 8.65581 2.73751C9.02644 2.89246 9.36001 3.11958 9.63568 3.40468C9.68278 3.45279 9.74127 3.48915 9.80611 3.51063C9.87096 3.53212 9.94024 3.53808 10.008 3.52802C10.0758 3.51795 10.14 3.49216 10.1951 3.45286C10.2503 3.41355 10.2948 3.3619 10.3248 3.30234C10.5668 2.81804 10.9454 2.40949 11.417 2.1236C11.8885 1.83771 12.434 1.68606 12.9908 1.68606C13.5475 1.68606 14.093 1.83771 14.5646 2.1236C15.0361 2.40949 15.4147 2.81804 15.6568 3.30234C15.6868 3.3619 15.7312 3.41355 15.7864 3.45286C15.8416 3.49216 15.9058 3.51795 15.9736 3.52802C16.0413 3.53808 16.1106 3.53212 16.1754 3.51063C16.2403 3.48915 16.2988 3.45279 16.3459 3.40468C16.6215 3.11958 16.9551 2.89246 17.3257 2.73751C17.6964 2.58255 18.0961 2.50309 18.5 2.50409C19.2867 2.50409 20.0413 2.80599 20.5976 3.34338C21.1539 3.88076 21.4664 4.60962 21.4664 5.36959C21.4664 6.12957 21.1539 6.85843 20.5976 7.39581C20.0413 7.9332 19.2867 8.2351 18.5 8.2351C18.4023 8.23508 18.3076 8.26767 18.2319 8.32734C18.1562 8.38702 18.1042 8.47012 18.0846 8.56258L17.2201 12.738H15.5983Z" fill="black"/>
</svg>
