<svg width="24" height="24" viewBox="0 0 24 24" fill="none" xmlns="http://www.w3.org/2000/svg">
<g clip-path="url(#clip0_2857_441)">
<path d="M9.06046 20.2197C9.06046 22.013 7.60651 23.467 5.81319 23.467C4.01987 23.467 2.56592 22.013 2.56592 20.2197V3.40059C2.56592 1.60727 4.01987 0.15332 5.81319 0.15332C7.60651 0.15332 9.06046 1.60727 9.06046 3.40059V20.2197Z" fill="black"/>
<path d="M21.2475 20.2197C21.2475 22.013 19.7935 23.467 18.0002 23.467C16.2069 23.467 14.7529 22.013 14.7529 20.2197V3.40059C14.7534 1.60727 16.2074 0.15332 18.0002 0.15332C19.7935 0.15332 21.2475 1.60727 21.2475 3.40059V20.2197Z" fill="black"/>
</g>
<defs>
<clipPath id="clip0_2857_441">
<rect width="23.3136" height="23.3136" fill="white" transform="translate(0.25 0.15332)"/>
</clipPath>
</defs>
</svg>
