<svg width="56" height="40" viewBox="0 0 56 56" fill="none" xmlns="http://www.w3.org/2000/svg">
<path d="M43.7186 22.9589C42.3438 22.9589 41.2439 23.3255 40.3274 23.5089L40.0524 25.6169C40.5107 25.4336 41.7939 25.0669 42.8937 24.9753C43.9935 24.9753 44.6351 25.1586 44.4518 26.1668C41.1523 26.1668 38.9526 26.8084 38.4943 29.008C37.8528 32.6741 41.8855 32.7658 43.4436 31.116L43.2603 32.1242H46.1932L47.4763 26.1668C47.9346 23.6922 45.7349 22.8673 43.7186 22.9589ZM43.9019 29.0997C43.7186 29.8329 43.077 30.1079 42.3438 30.1995C41.7022 30.1995 41.1523 29.8329 41.5189 29.0997C41.8855 28.5498 42.7104 28.5498 43.352 28.5498C43.5353 28.5498 43.8102 28.5498 44.0852 28.5498C43.9935 28.4581 43.9019 28.8247 43.9019 29.0997Z" fill="#32A6CE"/>
<path d="M40.0524 25.6171C40.5107 25.4338 41.7938 25.0672 42.8937 24.9755C43.9935 24.9755 44.6351 25.1588 44.4518 26.167C41.1523 26.167 38.9526 26.8086 38.4943 29.0082C37.8528 32.6744 41.8855 32.766 43.4436 31.1163L43.2603 32.1244H46.1932L47.4763 26.167C48.0262 23.6924 45.7349 23.0508 43.7186 23.0508L40.0524 25.6171ZM43.9019 29.0999C43.7186 29.8331 43.077 30.1081 42.3438 30.1997C41.7022 30.1997 41.1523 29.8331 41.5189 29.0999C41.8855 28.55 42.7104 28.55 43.3519 28.55C43.5353 28.55 43.8102 28.55 44.0852 28.55C43.9935 28.4583 43.9019 28.8249 43.9019 29.0999Z" fill="#1A80AD"/>
<path d="M49.9513 20.2095L47.5684 32.1244H50.5013L52.9759 20.2095H49.9513Z" fill="#32A6CE"/>
<path d="M52.0594 20.2095L47.5684 32.1244H50.5013L52.9759 20.2095H49.9513H52.0594Z" fill="#1A80AD"/>
<path d="M36.2944 20.2095H30.8869L28.5039 32.1244H31.7118L32.5366 28.4582H34.828C37.0276 28.4582 38.8607 27.1751 39.3189 24.8838C39.7772 22.2258 37.8525 20.2095 36.2944 20.2095ZM36.2027 24.3339C36.0194 25.1587 35.1946 25.7087 34.3697 25.7087H32.9032L33.5448 22.9591H35.1029C35.9278 22.9591 36.3861 23.509 36.2027 24.3339Z" fill="#32A6CE"/>
<path d="M36.2943 20.2095H32.6281L28.4121 32.1244H31.62L32.4448 28.4582H34.7362C36.9358 28.4582 38.7689 27.1751 39.2272 24.8838C39.7771 22.2258 37.8524 20.2095 36.2943 20.2095ZM36.2026 24.3339C36.0193 25.1587 35.1944 25.7087 34.3696 25.7087H32.9031L33.5447 22.9591H35.1028C35.9277 22.9591 36.3859 23.509 36.2026 24.3339Z" fill="#1A80AD"/>
<path d="M15.1226 22.9589C13.7478 22.9589 12.648 23.3255 11.8231 23.5089L11.5481 25.6169C11.9147 25.4336 13.2895 25.0669 14.3894 24.9753C15.4892 24.9753 16.1308 25.1586 15.9475 26.1668C12.7396 26.1668 10.54 26.8084 10.0817 29.008C9.44012 32.6741 13.3812 32.7658 14.9393 31.116L14.756 32.1242H17.6889L18.972 26.1668C19.4303 23.6922 17.139 22.8673 15.1226 22.9589ZM15.3976 29.0997C15.2143 29.8329 14.5727 30.1079 13.8395 30.1995C13.1979 30.1995 12.648 29.8329 13.1062 29.0997C13.4728 28.5498 14.2977 28.5498 14.8476 28.5498C15.1226 28.5498 15.3059 28.5498 15.5809 28.5498C15.4892 28.4581 15.3976 28.8247 15.3976 29.0997Z" fill="#21789E"/>
<path d="M11.6399 25.6171C12.0065 25.4338 13.3813 25.0672 14.4812 24.9755C15.581 24.9755 16.2226 25.1588 16.0393 26.167C12.8314 26.167 10.6317 26.8086 10.1735 29.0082C9.53191 32.6744 13.473 32.766 15.0311 31.1163L14.7561 32.1244H17.689L18.9722 26.167C19.5221 23.6924 17.2308 23.0508 15.2144 23.0508L11.6399 25.6171ZM15.3977 29.0999C15.2144 29.8331 14.5728 30.1081 13.8396 30.1997C13.198 30.1997 12.6481 29.8331 13.1064 29.0999C13.473 28.55 14.2979 28.55 14.8478 28.55C15.1227 28.55 15.3061 28.55 15.581 28.55C15.4894 28.4583 15.3977 28.8249 15.3977 29.0999Z" fill="#1A5B80"/>
<path d="M20.1646 22.959H23.0975L23.5557 28.0916L26.4886 22.959H29.5132L22.5476 35.7904H19.248L21.3561 31.941L20.1646 22.959Z" fill="#21789E"/>
<path d="M23.0975 23.1423L23.5557 28.1832L26.4886 22.959H29.5132L22.5476 35.7904H19.248L21.3561 32.0326" fill="#1A5B80"/>
<path d="M7.88216 20.2095H2.38298L0 32.1244H3.20786L4.03273 28.4582H6.32406C8.52373 28.4582 10.3568 27.1751 10.8151 24.8838C11.365 22.2258 9.44026 20.2095 7.88216 20.2095ZM7.79051 24.3339C7.6072 25.1587 6.78232 25.7087 5.95745 25.7087H4.491L5.13257 22.9591H6.69067C7.51555 22.9591 7.97381 23.509 7.79051 24.3339Z" fill="#21789E"/>
<path d="M7.88216 20.2095H5.40753L0 32.1244H3.20786L4.03273 28.4582H6.32406C8.52373 28.4582 10.3568 27.1751 10.8151 24.8838C11.365 22.2258 9.44026 20.2095 7.88216 20.2095ZM7.79051 24.3339C7.6072 25.1587 6.78232 25.7087 5.95745 25.7087H4.491L5.13257 22.9591H6.69067C7.51555 22.9591 7.97381 23.509 7.79051 24.3339Z" fill="#1A5B80"/>
<path d="M14.5707 26.1667C12.0961 26.3501 10.4463 27.0833 10.0797 28.9163C9.43816 32.5825 13.3792 32.6741 14.9373 31.0244L14.754 32.1242H17.6869L18.1452 29.9245L14.5707 26.1667ZM15.3956 29.0996C15.2123 29.8329 14.5707 30.1078 13.8375 30.1995C13.1959 30.1995 12.646 29.8329 13.1043 29.0996C13.4709 28.5497 14.2958 28.5497 14.8457 28.5497C15.1206 28.5497 15.304 28.5497 15.5789 28.5497C15.4873 28.4581 15.3956 28.8247 15.3956 29.0996Z" fill="#06435E"/>
<path d="M23.738 27.9999L23.5547 28.2749L25.4794 30.1079L29.5121 22.959H26.4876L23.738 27.9999Z" fill="#06435E"/>
<path d="M3.20633 32.1244L4.03121 28.4583L0.273438 32.1244H3.20633Z" fill="#06435E"/>
<path d="M31.6204 32.1246L32.4453 28.2751V28.3668L28.6875 32.1246H31.6204Z" fill="#2273AA"/>
<path d="M43.0771 26.167C40.6025 26.3503 38.9527 27.0835 38.5861 28.9166C37.9446 32.5827 41.9773 32.6744 43.5354 31.0246L43.2604 32.1244H46.1933L46.6516 29.9248L43.0771 26.167ZM43.902 29.0999C43.7187 29.8331 43.0771 30.1081 42.3439 30.1997C41.7023 30.1997 41.1524 29.8331 41.519 29.0999C41.8856 28.55 42.7105 28.55 43.3521 28.55C43.5354 28.55 43.8104 28.55 44.0853 28.55C43.9937 28.4583 43.902 28.8249 43.902 29.0999Z" fill="#2273AA"/>
<path d="M49.6744 26.717L47.5664 32.1246H50.4993L51.3242 28.4584L49.6744 26.717Z" fill="#2273AA"/>
<rect x="-1415" y="-7667" width="7371" height="15994" stroke="#A544E0" stroke-width="84"/>
</svg>
