<svg width="13" height="15" viewBox="0 0 13 15" fill="none" xmlns="http://www.w3.org/2000/svg">
<path fill-rule="evenodd" clip-rule="evenodd" d="M9.27938 0.0125977C9.28026 0.241406 9.34706 3.54814 12.8173 3.75439C12.8173 4.70801 12.8184 5.39941 12.8184 6.30938C12.5557 6.32461 10.5339 6.17783 9.27558 5.05547L9.27177 10.0295C9.31952 13.4818 6.7789 15.5827 3.4581 14.857C-2.26827 13.144 -0.365439 4.65088 5.38437 5.55996C5.38437 8.30186 5.38583 5.55908 5.38583 8.30186C3.01044 7.95234 2.21591 9.92842 2.84726 11.3432C3.42147 12.6313 5.78661 12.9105 6.61161 11.0933C6.70507 10.7376 6.75165 10.3321 6.75165 9.87686V0L9.27938 0.0125977V0.0125977Z" fill="black"/>
</svg>
