<svg width="19" height="15" viewBox="0 0 19 15" fill="none" xmlns="http://www.w3.org/2000/svg">
<path d="M16.5702 3.73421C16.5815 3.89695 16.5815 4.05969 16.5815 4.22393C16.5815 9.22837 12.7717 15 5.80538 15V14.997C3.74751 15 1.73239 14.4105 0 13.2991C0.299231 13.3351 0.599962 13.3531 0.901443 13.3539C2.60684 13.3554 4.26348 12.7831 5.60515 11.7295C3.9845 11.6987 2.56334 10.642 2.06687 9.09937C2.63458 9.20887 3.21955 9.18637 3.77676 9.03413C2.00987 8.67715 0.738703 7.12475 0.738703 5.32186V5.27386C1.26517 5.5671 1.85463 5.72984 2.4576 5.74783C0.79345 4.63565 0.280482 2.42179 1.28542 0.690903C3.2083 3.057 6.04537 4.49541 9.09093 4.64765C8.7857 3.33224 9.20267 1.95382 10.1866 1.02913C11.712 -0.404778 14.1111 -0.331282 15.545 1.19337C16.3932 1.02613 17.2062 0.714902 17.9501 0.27393C17.6674 1.15062 17.0757 1.89533 16.2852 2.36855C17.0359 2.28005 17.7694 2.07907 18.4601 1.77234C17.9516 2.53429 17.3112 3.198 16.5702 3.73421Z" fill="#ff6635"/>
</svg>
