<svg width="48" height="10" viewBox="0 0 48 16" fill="none" xmlns="http://www.w3.org/2000/svg">
<path d="M17.6094 14.7037L19.9797 1.37036H23.6834L21.3872 14.7037H17.6094Z" fill="#3C58BF"/>
<path d="M17.6094 14.7037L20.6464 1.37036H23.6834L21.3872 14.7037H17.6094Z" fill="#293688"/>
<path d="M34.7982 1.51862C34.0574 1.22232 32.8723 0.926025 31.3908 0.926025C27.6871 0.926025 25.0204 2.77788 25.0204 5.44454C25.0204 7.44454 26.8723 8.48158 28.3537 9.14824C29.8352 9.81491 30.2797 10.2594 30.2797 10.8519C30.2797 11.7408 29.0945 12.1853 28.0574 12.1853C26.576 12.1853 25.7611 11.9631 24.5019 11.4445L23.9834 11.2223L23.4648 14.2594C24.3537 14.6297 25.9834 15.0001 27.6871 15.0001C31.613 15.0001 34.2056 13.1482 34.2056 10.3334C34.2056 8.77788 33.2426 7.59269 31.0204 6.62973C29.6871 5.96306 28.8723 5.59269 28.8723 4.92602C28.8723 4.33343 29.5389 3.74084 31.0204 3.74084C32.2797 3.74084 33.1686 3.96306 33.8352 4.25936L34.2056 4.40751L34.7982 1.51862Z" fill="#3C58BF"/>
<path d="M34.7982 1.51862C34.0574 1.22232 32.8723 0.926025 31.3908 0.926025C27.6871 0.926025 25.6871 2.77788 25.6871 5.44454C25.6871 7.44454 26.8723 8.48158 28.3537 9.14824C29.8352 9.81491 30.2797 10.2594 30.2797 10.8519C30.2797 11.7408 29.0945 12.1853 28.0574 12.1853C26.576 12.1853 25.7611 11.9631 24.5019 11.4445L23.9834 11.2223L23.4648 14.2594C24.3537 14.6297 25.9834 15.0001 27.6871 15.0001C31.613 15.0001 34.2056 13.1482 34.2056 10.3334C34.2056 8.77788 33.2426 7.59269 31.0204 6.62973C29.6871 5.96306 28.8723 5.59269 28.8723 4.92602C28.8723 4.33343 29.5389 3.74084 31.0204 3.74084C32.2797 3.74084 33.1686 3.96306 33.8352 4.25936L34.2056 4.40751L34.7982 1.51862Z" fill="#293688"/>
<path d="M41.167 1.37036C40.2781 1.37036 39.6115 1.44444 39.2411 2.33333L33.6855 14.7037H37.6855L38.4263 12.4815H43.167L43.6115 14.7037H47.167L44.0559 1.37036H41.167V1.37036ZM39.4633 10.2592C39.6855 9.59258 40.9448 6.33332 40.9448 6.33332C40.9448 6.33332 41.2411 5.51851 41.4633 4.99999L41.6855 6.25925C41.6855 6.25925 42.4263 9.59258 42.5744 10.3333H39.4633V10.2592Z" fill="#3C58BF"/>
<path d="M42.0559 1.37036C41.167 1.37036 40.5004 1.44444 40.13 2.33333L33.6855 14.7037H37.6855L38.4263 12.4815H43.167L43.6115 14.7037H47.167L44.0559 1.37036H42.0559V1.37036ZM39.4633 10.2592C39.7596 9.51851 40.9448 6.33332 40.9448 6.33332C40.9448 6.33332 41.2411 5.51851 41.4633 4.99999L41.6855 6.25925C41.6855 6.25925 42.4263 9.59258 42.5744 10.3333H39.4633V10.2592Z" fill="#293688"/>
<path d="M10.7977 10.7036L10.4274 8.77767C9.76071 6.55545 7.61256 4.111 5.24219 2.92582L8.57552 14.7777H12.5755L18.5755 1.44434H14.5755L10.7977 10.7036Z" fill="#3C58BF"/>
<path d="M10.7977 10.7036L10.4274 8.77767C9.76071 6.55545 7.61256 4.111 5.24219 2.92582L8.57552 14.7777H12.5755L18.5755 1.44434H15.3163L10.7977 10.7036Z" fill="#293688"/>
<path d="M0.5 1.37036L1.16667 1.51851C5.90741 2.62962 9.16667 5.44443 10.4259 8.77777L9.09259 2.48147C8.87037 1.59258 8.2037 1.37036 7.38889 1.37036H0.5V1.37036Z" fill="#FFBC00"/>
<path d="M0.5 1.37036C5.24074 2.48147 9.16667 5.37037 10.4259 8.70371L9.16667 3.44444C8.94444 2.55555 8.2037 2.03703 7.38889 2.03703L0.5 1.37036Z" fill="#F7981D"/>
<path d="M14.4996 10.2587L11.9811 7.7402L10.7959 10.555L10.4996 8.70316C9.83298 6.48094 7.68483 4.0365 5.31445 2.85132L8.64779 14.7032H12.6478L14.4996 10.2587Z" fill="#051244"/>
<path d="M21.3891 14.7028L18.2039 11.4436L17.6113 14.7028H21.3891Z" fill="#051244"/>
<path d="M29.9073 10.1104C30.2036 10.4066 30.3518 10.6289 30.2777 10.9252C30.2777 11.8141 29.0925 12.2585 28.0555 12.2585C26.574 12.2585 25.7592 12.0363 24.4999 11.5178L23.9814 11.2955L23.4629 14.3326C24.3518 14.7029 25.9814 15.0733 27.6851 15.0733C30.0555 15.0733 31.9814 14.4066 33.0925 13.2215L29.9073 10.1104Z" fill="#051244"/>
<path d="M34.2031 14.7032H37.6846L38.4253 12.481H43.1661L43.6105 14.7032H47.1661L45.9068 9.29581L41.4624 4.99951L41.6846 6.1847C41.6846 6.1847 42.4253 9.51803 42.5735 10.2588H39.4624C39.7587 9.51803 40.9439 6.33284 40.9439 6.33284C40.9439 6.33284 41.2402 5.51803 41.4624 4.99951" fill="#051244"/>
</svg>
