<svg width="22" height="15" viewBox="0 0 22 15" fill="none" xmlns="http://www.w3.org/2000/svg">
<path d="M8.46773 10.6657V4.33443L14.0323 7.50014L8.46773 10.6657ZM20.8455 2.34227C20.6006 1.42032 19.8792 0.694235 18.9632 0.447824C17.3029 0 10.6452 0 10.6452 0C10.6452 0 3.9875 0 2.32721 0.447824C1.41124 0.694235 0.68979 1.42032 0.44492 2.34227C0 4.01336 0 7.50005 0 7.50005C0 7.50005 0 10.9866 0.44492 12.6577C0.68979 13.5798 1.41115 14.3058 2.32721 14.5524C3.9875 15 10.6452 15 10.6452 15C10.6452 15 17.3029 15 18.9632 14.5524C19.8792 14.3058 20.6006 13.5798 20.8455 12.6577C21.2904 10.9866 21.2904 7.49996 21.2904 7.49996C21.2904 7.49996 21.2904 4.01336 20.8455 2.34227Z" fill="black"/>
</svg>
